# xmcd CD database file
#
# Track frame offsets:
#	150
#	20182
#	41370
#	64386
#	74566
#	96433
#	110494
#	125980
#	142668
#	161351
#	174993
#	198610
#
# Disc length: 2889 seconds
#
# Revision: 0
# Processed by: cddbd v1.5.1PL2 Copyright (c) Steve Scherf et al.
# Submitted via: CDex 1.60beta1-cs1
#
DISCID=b30b470c
DTITLE=Vicki Delor - Turning
DYEAR=2005
DGENRE=New Age
TTITLE0=Turning
TTITLE1=Now, He's Going Home
TTITLE2=In The Current
TTITLE3=Here Comes The Bride
TTITLE4=More Body Motion
TTITLE5=Unity
TTITLE6=Gypsy Dancers
TTITLE7=Distant Voices
TTITLE8=Happy Days Of Youth
TTITLE9=Lost At Sea
TTITLE10=In A Dream
TTITLE11=In The Beginning
EXTD=YEAR: 2005
EXTT0=
EXTT1=
EXTT2=
EXTT3=
EXTT4=
EXTT5=
EXTT6=
EXTT7=
EXTT8=
EXTT9=
EXTT10=
EXTT11=
PLAYORDER=
